<?xml version="1.0" encoding="UTF-8" ?>
<!DOCTYPE svg PUBLIC "-//W3C//DTD SVG 1.1//EN" "http://www.w3.org/Graphics/SVG/1.1/DTD/svg11.dtd">
<svg width="45pt" height="45pt" viewBox="0 0 45 45" version="1.1" xmlns="http://www.w3.org/2000/svg">
<g id="#1f1f1feb">
<path fill="#1f1f1f" opacity="0.92" d=" M 20.00 5.98 C 21.10 4.36 23.83 4.36 24.97 5.94 C 26.27 7.26 25.22 9.06 25.02 10.59 C 28.39 12.72 31.81 15.73 32.04 20.01 C 32.40 22.48 30.72 24.47 29.40 26.34 C 30.18 28.14 31.35 29.94 30.91 32.00 C 29.50 33.74 27.05 33.99 25.12 34.85 C 30.40 34.79 36.54 33.86 40.53 38.18 C 37.31 40.13 33.55 38.87 30.05 38.97 C 23.31 38.51 16.56 38.86 9.82 39.22 C 7.97 39.50 6.16 39.00 4.44 38.36 C 8.12 33.55 14.62 34.95 19.88 34.84 C 18.02 34.17 16.10 33.60 14.35 32.65 C 13.39 30.44 14.72 28.32 15.59 26.35 C 14.26 24.46 12.58 22.45 12.96 19.96 C 13.21 15.70 16.62 12.71 19.98 10.59 C 19.80 9.07 18.72 7.29 20.00 5.98 M 23.10 6.47 C 20.98 5.32 19.78 9.49 22.22 9.58 C 24.03 10.33 24.96 6.89 23.10 6.47 M 21.25 11.92 C 17.12 13.58 13.15 18.17 14.98 22.83 C 16.23 26.08 20.29 24.95 22.99 25.21 C 25.22 24.96 28.27 25.81 29.66 23.51 C 32.60 18.30 26.73 11.17 21.25 11.92 M 15.56 29.08 C 20.18 29.22 24.82 29.22 29.44 29.08 C 28.43 28.20 27.65 26.68 26.08 26.87 C 22.54 27.11 17.85 25.47 15.56 29.08 M 15.25 31.03 C 19.37 33.90 25.63 33.90 29.75 31.02 C 24.92 30.72 20.08 30.71 15.25 31.03 M 10.08 36.14 C 12.12 37.49 14.55 37.46 16.91 37.33 C 23.97 36.68 31.04 37.48 38.12 37.68 C 33.20 35.54 27.66 36.90 22.59 35.33 C 18.48 36.19 14.27 36.71 10.08 36.14 M 8.57 36.96 L 8.51 37.86 L 9.29 38.31 L 9.84 37.82 C 9.73 37.51 9.50 36.88 9.39 36.56 L 8.57 36.96 Z" />
</g>
<g id="#ffffffff">
<path fill="#ffffff" opacity="1.00" d=" M 23.10 6.47 C 24.96 6.89 24.03 10.33 22.22 9.58 C 19.78 9.49 20.98 5.32 23.10 6.47 Z" />
<path fill="#ffffff" opacity="1.00" d=" M 21.25 11.92 C 26.73 11.17 32.60 18.30 29.66 23.51 C 28.27 25.81 25.22 24.96 22.99 25.21 C 20.29 24.95 16.23 26.08 14.98 22.83 C 13.15 18.17 17.12 13.58 21.25 11.92 M 21.48 16.50 C 20.59 17.02 19.71 17.55 18.84 18.09 C 20.37 18.86 21.56 20.05 22.61 21.38 C 23.69 20.08 24.86 18.87 25.92 17.57 C 25.37 17.32 24.27 16.82 23.71 16.57 C 23.24 15.75 22.75 14.93 22.26 14.12 C 22.06 14.71 21.67 15.90 21.48 16.50 Z" />
<path fill="#ffffff" opacity="1.00" d=" M 10.08 36.14 C 14.27 36.71 18.48 36.19 22.59 35.33 C 27.66 36.90 33.20 35.54 38.12 37.68 C 31.04 37.48 23.97 36.68 16.91 37.33 C 14.55 37.46 12.12 37.49 10.08 36.14 Z" />
</g>
<g id="#606060ff">
<path fill="#606060" opacity="1.00" d=" M 21.48 16.50 C 21.67 15.90 22.06 14.71 22.26 14.12 C 22.75 14.93 23.24 15.75 23.71 16.57 C 24.27 16.82 25.37 17.32 25.92 17.57 C 24.86 18.87 23.69 20.08 22.61 21.38 C 21.56 20.05 20.37 18.86 18.84 18.09 C 19.71 17.55 20.59 17.02 21.48 16.50 Z" />
</g>
<g id="#f9f9f9ff">
<path fill="#f9f9f9" opacity="1.00" d=" M 15.56 29.08 C 17.85 25.47 22.54 27.11 26.08 26.87 C 27.65 26.68 28.43 28.20 29.44 29.08 C 24.82 29.22 20.18 29.22 15.56 29.08 Z" />
</g>
<g id="#fbfbfbff">
<path fill="#fbfbfb" opacity="1.00" d=" M 15.25 31.03 C 20.08 30.71 24.92 30.72 29.75 31.02 C 25.63 33.90 19.37 33.90 15.25 31.03 Z" />
</g>
<g id="#bdbdbdff">
<path fill="#bdbdbd" opacity="1.00" d=" M 8.57 36.96 L 9.39 36.56 C 9.50 36.88 9.73 37.51 9.84 37.82 L 9.29 38.31 L 8.51 37.86 L 8.57 36.96 Z" />
</g>
</svg>
