<?xml version="1.0" encoding="UTF-8" ?>
<!DOCTYPE svg PUBLIC "-//W3C//DTD SVG 1.1//EN" "http://www.w3.org/Graphics/SVG/1.1/DTD/svg11.dtd">
<svg width="45pt" height="45pt" viewBox="0 0 45 45" version="1.1" xmlns="http://www.w3.org/2000/svg">
<g id="#000000ff">
<path fill="#000000" opacity="1.00" d=" M 17.73 9.44 C 18.76 8.31 19.53 6.76 20.99 6.11 C 22.29 6.65 22.43 8.14 22.96 9.27 C 27.38 9.88 31.74 11.94 34.20 15.80 C 38.75 22.87 38.81 31.66 38.75 39.77 C 30.54 39.69 22.32 39.77 14.11 39.71 C 13.52 32.46 22.42 29.88 22.60 22.89 C 19.27 25.45 15.77 27.86 12.98 31.06 C 12.19 32.18 10.76 31.48 9.72 31.25 C 8.17 30.71 5.99 30.40 5.62 28.45 C 4.49 25.63 6.60 22.99 6.99 20.26 C 7.29 20.64 7.91 21.40 8.22 21.77 C 7.30 24.38 5.56 28.00 8.72 29.81 C 9.34 29.00 10.57 27.39 11.19 26.58 C 11.45 27.42 11.97 29.11 12.24 29.96 C 15.76 25.01 22.47 22.86 24.21 16.54 C 24.87 19.62 23.92 22.75 23.41 25.78 C 22.32 30.86 16.38 33.02 15.59 38.23 C 22.57 38.32 29.55 38.23 36.53 38.28 C 36.66 30.91 36.50 22.98 32.55 16.49 C 30.23 12.62 25.68 11.16 21.45 10.60 C 21.31 9.90 21.02 8.51 20.87 7.81 C 20.17 8.78 19.47 9.75 18.77 10.72 C 18.15 10.73 16.89 10.75 16.27 10.77 C 15.58 9.93 14.90 9.09 14.22 8.25 C 14.30 8.97 14.48 10.41 14.56 11.14 L 13.19 13.53 C 13.88 13.47 15.27 13.34 15.97 13.27 C 16.22 15.22 15.23 16.78 13.82 18.05 C 13.29 16.76 12.76 15.48 12.24 14.19 C 11.26 16.73 10.02 19.15 8.86 21.61 L 8.73 21.19 C 8.60 20.66 8.34 19.59 8.21 19.05 C 10.17 15.07 14.01 11.72 12.89 6.86 C 14.93 6.04 16.19 8.53 17.73 9.44 Z" />
<path fill="#000000" opacity="1.00" d=" M 9.05 24.40 C 10.29 25.19 10.26 25.91 8.96 26.56 C 7.72 25.78 7.75 25.06 9.05 24.40 Z" />
</g>
<g id="#ffffffff">
<path fill="#ffffff" opacity="1.00" d=" M 18.77 10.72 C 19.47 9.75 20.17 8.78 20.87 7.81 C 21.02 8.51 21.31 9.90 21.45 10.60 C 25.68 11.16 30.23 12.62 32.55 16.49 C 36.50 22.98 36.66 30.91 36.53 38.28 C 29.55 38.23 22.57 38.32 15.59 38.23 C 16.38 33.02 22.32 30.86 23.41 25.78 C 23.92 22.75 24.87 19.62 24.21 16.54 C 22.47 22.86 15.76 25.01 12.24 29.96 C 11.97 29.11 11.45 27.42 11.19 26.58 C 10.57 27.39 9.34 29.00 8.72 29.81 C 5.56 28.00 7.30 24.38 8.22 21.77 L 8.72 21.16 L 8.73 21.19 L 8.86 21.61 C 10.02 19.15 11.26 16.73 12.24 14.19 C 12.76 15.48 13.29 16.76 13.82 18.05 C 15.23 16.78 16.22 15.22 15.97 13.27 C 15.27 13.34 13.88 13.47 13.19 13.53 L 14.56 11.14 C 14.48 10.41 14.30 8.97 14.22 8.25 C 14.90 9.09 15.58 9.93 16.27 10.77 C 16.89 10.75 18.15 10.73 18.77 10.72 M 9.05 24.40 C 7.75 25.06 7.72 25.78 8.96 26.56 C 10.26 25.91 10.29 25.19 9.05 24.40 Z" />
</g>
</svg>
