<?xml version="1.0" encoding="UTF-8" ?>
<!DOCTYPE svg PUBLIC "-//W3C//DTD SVG 1.1//EN" "http://www.w3.org/Graphics/SVG/1.1/DTD/svg11.dtd">
<svg width="45pt" height="45pt" viewBox="0 0 45 45" version="1.1" xmlns="http://www.w3.org/2000/svg">
<g id="#000000ff">
<path fill="#000000" opacity="1.00" d=" M 20.08 6.15 C 21.06 4.35 23.94 4.31 24.90 6.15 C 25.80 7.84 24.24 9.32 23.57 10.75 C 24.23 14.47 25.00 18.17 25.75 21.87 C 27.11 18.58 28.47 15.29 29.73 11.96 C 29.22 10.62 27.61 9.14 28.65 7.64 C 29.50 5.83 32.53 5.84 33.35 7.66 C 34.42 9.24 32.76 10.70 32.02 11.98 C 31.70 15.41 31.74 18.87 31.78 22.31 C 33.55 19.60 35.29 16.86 37.03 14.13 C 36.75 13.53 36.20 12.32 35.92 11.72 C 36.90 10.69 37.99 8.68 39.70 9.40 C 41.94 9.74 41.57 12.31 41.39 13.94 C 40.44 14.33 39.49 14.72 38.55 15.12 C 37.40 20.83 37.79 27.30 33.36 31.72 C 34.53 34.04 35.38 36.53 35.17 39.17 C 26.72 40.24 18.16 40.21 9.70 39.15 C 8.79 36.44 10.45 34.07 11.70 31.80 C 7.22 27.36 7.59 20.87 6.45 15.12 C 5.51 14.72 4.56 14.33 3.61 13.94 C 3.59 12.54 2.92 10.33 4.64 9.68 C 6.49 8.33 8.03 10.41 9.08 11.70 C 8.80 12.31 8.25 13.52 7.97 14.13 C 9.71 16.85 11.44 19.59 13.20 22.30 C 13.10 17.92 14.07 13.18 11.66 9.22 C 10.09 6.59 14.70 4.34 16.17 6.86 C 17.47 8.42 15.90 10.13 15.24 11.56 C 16.56 14.99 17.91 18.41 19.27 21.82 C 20.01 18.13 20.77 14.45 21.43 10.75 C 20.73 9.33 19.23 7.85 20.08 6.15 M 21.93 6.83 C 20.96 10.16 25.38 6.24 21.93 6.83 M 13.32 7.25 C 11.61 8.02 13.12 10.64 14.67 9.71 C 16.39 8.94 14.87 6.31 13.32 7.25 M 30.16 8.15 C 29.64 9.78 30.20 10.33 31.83 9.81 C 32.36 8.19 31.80 7.63 30.16 8.15 M 5.19 11.13 C 4.61 12.74 5.14 13.31 6.80 12.85 C 7.38 11.24 6.84 10.67 5.19 11.13 M 38.14 11.18 C 37.67 12.83 38.25 13.37 39.87 12.79 C 40.33 11.15 39.76 10.61 38.14 11.18 M 20.37 24.04 C 21.43 24.03 23.56 24.03 24.63 24.02 C 23.93 20.47 23.22 16.92 22.50 13.37 C 21.77 16.92 21.07 20.48 20.37 24.04 M 14.78 14.66 C 14.75 17.85 14.75 21.04 14.80 24.22 C 15.72 24.18 17.55 24.09 18.46 24.05 C 17.31 20.89 16.08 17.76 14.78 14.66 M 26.55 24.02 C 27.46 24.06 29.29 24.14 30.21 24.18 C 30.26 21.09 30.25 17.99 30.24 14.89 C 28.95 17.91 27.71 20.95 26.55 24.02 M 8.38 17.66 C 8.78 20.15 9.20 22.64 9.62 25.13 C 10.41 24.97 12.00 24.67 12.79 24.52 C 11.34 22.22 9.88 19.92 8.38 17.66 M 32.27 24.40 C 33.05 24.58 34.61 24.94 35.39 25.12 C 35.80 22.63 36.22 20.15 36.62 17.66 C 35.14 19.89 33.70 22.14 32.27 24.40 M 9.72 26.61 C 10.49 27.50 11.26 28.39 12.04 29.28 C 18.99 28.64 26.00 28.64 32.96 29.28 C 33.73 28.39 34.51 27.50 35.28 26.60 C 26.82 25.38 18.18 25.37 9.72 26.61 M 12.76 30.16 C 12.85 30.84 13.02 32.20 13.10 32.88 C 19.34 32.09 25.66 32.09 31.90 32.88 C 31.98 32.20 32.15 30.84 32.24 30.16 C 25.76 29.64 19.24 29.64 12.76 30.16 M 10.80 35.18 C 18.52 34.66 26.24 34.77 33.96 35.15 C 31.04 32.96 27.18 33.54 23.75 33.28 C 19.42 33.49 14.66 32.76 10.80 35.18 M 10.33 37.50 C 18.34 38.71 26.72 39.10 34.66 37.27 C 33.22 36.59 31.70 36.03 30.08 36.02 C 24.04 35.70 17.93 35.56 11.91 36.32 C 11.52 36.62 10.72 37.20 10.33 37.50 Z" />
</g>
<g id="#d9d9d9ff">
<path fill="#d9d9d9" opacity="1.00" d=" M 21.93 6.83 C 25.38 6.24 20.96 10.16 21.93 6.83 Z" />
</g>
<g id="#ffffffff">
<path fill="#ffffff" opacity="1.00" d=" M 13.32 7.25 C 14.87 6.31 16.39 8.94 14.67 9.71 C 13.12 10.64 11.61 8.02 13.32 7.25 Z" />
<path fill="#ffffff" opacity="1.00" d=" M 20.37 24.04 C 21.07 20.48 21.77 16.92 22.50 13.37 C 23.22 16.92 23.93 20.47 24.63 24.02 C 23.56 24.03 21.43 24.03 20.37 24.04 Z" />
<path fill="#ffffff" opacity="1.00" d=" M 8.38 17.66 C 9.88 19.92 11.34 22.22 12.79 24.52 C 12.00 24.67 10.41 24.97 9.62 25.13 C 9.20 22.64 8.78 20.15 8.38 17.66 Z" />
<path fill="#ffffff" opacity="1.00" d=" M 32.27 24.40 C 33.70 22.14 35.14 19.89 36.62 17.66 C 36.22 20.15 35.80 22.63 35.39 25.12 C 34.61 24.94 33.05 24.58 32.27 24.40 Z" />
<path fill="#ffffff" opacity="1.00" d=" M 9.72 26.61 C 18.18 25.37 26.82 25.38 35.28 26.60 C 34.51 27.50 33.73 28.39 32.96 29.28 C 26.00 28.64 18.99 28.64 12.04 29.28 C 11.26 28.39 10.49 27.50 9.72 26.61 Z" />
<path fill="#ffffff" opacity="1.00" d=" M 10.80 35.18 C 14.66 32.76 19.42 33.49 23.75 33.28 C 27.18 33.54 31.04 32.96 33.96 35.15 C 26.24 34.77 18.52 34.66 10.80 35.18 Z" />
<path fill="#ffffff" opacity="1.00" d=" M 10.33 37.50 C 10.72 37.20 11.52 36.62 11.91 36.32 C 17.93 35.56 24.04 35.70 30.08 36.02 C 31.70 36.03 33.22 36.59 34.66 37.27 C 26.72 39.10 18.34 38.71 10.33 37.50 Z" />
</g>
<g id="#f7f7f7ff">
<path fill="#f7f7f7" opacity="1.00" d=" M 30.16 8.15 C 31.80 7.63 32.36 8.19 31.83 9.81 C 30.20 10.33 29.64 9.78 30.16 8.15 Z" />
<path fill="#f7f7f7" opacity="1.00" d=" M 5.19 11.13 C 6.84 10.67 7.38 11.24 6.80 12.85 C 5.14 13.31 4.61 12.74 5.19 11.13 Z" />
<path fill="#f7f7f7" opacity="1.00" d=" M 38.14 11.18 C 39.76 10.61 40.33 11.15 39.87 12.79 C 38.25 13.37 37.67 12.83 38.14 11.18 Z" />
</g>
<g id="#fbfbfbff">
<path fill="#fbfbfb" opacity="1.00" d=" M 14.78 14.66 C 16.08 17.76 17.31 20.89 18.46 24.05 C 17.55 24.09 15.72 24.18 14.80 24.22 C 14.75 21.04 14.75 17.85 14.78 14.66 Z" />
</g>
<g id="#f3f3f3ff">
<path fill="#f3f3f3" opacity="1.00" d=" M 26.55 24.02 C 27.71 20.95 28.95 17.91 30.24 14.89 C 30.25 17.99 30.26 21.09 30.21 24.18 C 29.29 24.14 27.46 24.06 26.55 24.02 Z" />
</g>
<g id="#fcfcfcff">
<path fill="#fcfcfc" opacity="1.00" d=" M 12.76 30.16 C 19.24 29.64 25.76 29.64 32.24 30.16 C 32.15 30.84 31.98 32.20 31.90 32.88 C 25.66 32.09 19.34 32.09 13.10 32.88 C 13.02 32.20 12.85 30.84 12.76 30.16 Z" />
</g>
</svg>
