<?xml version="1.0" encoding="UTF-8" ?>
<!DOCTYPE svg PUBLIC "-//W3C//DTD SVG 1.1//EN" "http://www.w3.org/Graphics/SVG/1.1/DTD/svg11.dtd">
<svg width="45pt" height="45pt" viewBox="0 0 45 45" version="1.1" xmlns="http://www.w3.org/2000/svg">
<g id="#151515e8">
<path fill="#151515" opacity="0.91" d=" M 17.37 15.07 C 16.42 11.68 19.01 7.52 22.79 8.31 C 26.05 8.70 27.16 12.27 26.60 15.09 C 29.45 18.00 29.95 22.30 27.80 25.76 C 32.33 29.15 34.38 34.75 34.36 40.28 C 26.12 40.29 17.88 40.29 9.64 40.28 C 9.61 34.75 11.66 29.16 16.19 25.76 C 14.04 22.29 14.58 18.01 17.37 15.07 M 19.20 11.44 C 18.35 12.79 19.32 14.28 19.64 15.64 C 18.18 16.83 16.54 18.16 16.36 20.19 C 15.81 22.68 17.60 24.69 19.24 26.29 C 14.03 28.01 11.61 33.53 11.18 38.63 C 18.39 38.76 25.60 38.76 32.81 38.63 C 32.39 33.53 29.97 28.05 24.78 26.29 C 26.41 24.67 28.20 22.64 27.63 20.14 C 27.44 18.14 25.80 16.84 24.37 15.65 C 24.67 14.29 25.67 12.76 24.77 11.41 C 23.71 9.23 20.28 9.35 19.20 11.44 Z" />
</g>
<g id="#ffffffff">
<path fill="#ffffff" opacity="1.00" d=" M 19.20 11.44 C 20.28 9.35 23.71 9.23 24.77 11.41 C 25.67 12.76 24.67 14.29 24.37 15.65 C 25.80 16.84 27.44 18.14 27.63 20.14 C 28.20 22.64 26.41 24.67 24.78 26.29 C 29.97 28.05 32.39 33.53 32.81 38.63 C 25.60 38.76 18.39 38.76 11.18 38.63 C 11.61 33.53 14.03 28.01 19.24 26.29 C 17.60 24.69 15.81 22.68 16.36 20.19 C 16.54 18.16 18.18 16.83 19.64 15.64 C 19.32 14.28 18.35 12.79 19.20 11.44 Z" />
</g>
</svg>
