<?xml version="1.0" encoding="UTF-8" ?>
<!DOCTYPE svg PUBLIC "-//W3C//DTD SVG 1.1//EN" "http://www.w3.org/Graphics/SVG/1.1/DTD/svg11.dtd">
<svg width="45pt" height="45pt" viewBox="0 0 45 45" version="1.1" xmlns="http://www.w3.org/2000/svg">
<g id="#000000ff">
<path fill="#000000" opacity="1.00" d=" M 18.80 7.97 C 20.48 7.53 21.85 6.58 22.66 5.04 C 23.11 6.81 24.55 7.56 26.22 7.95 C 25.10 8.31 24.00 8.72 22.92 9.17 C 23.81 11.94 26.66 13.69 26.72 16.81 C 29.14 15.71 31.88 14.59 34.55 15.54 C 37.93 16.45 40.81 20.11 39.56 23.67 C 38.70 26.98 35.34 28.47 33.42 30.99 C 33.06 33.25 33.26 35.54 33.19 37.81 C 26.13 41.11 17.84 41.14 10.79 37.78 C 10.74 35.29 10.76 32.79 10.75 30.29 C 8.83 28.60 6.63 26.99 5.61 24.56 C 4.00 20.95 6.47 16.27 10.29 15.41 C 13.20 14.59 16.04 16.08 18.45 17.54 C 17.85 14.05 21.09 12.13 22.07 9.16 C 21.00 8.72 19.91 8.32 18.80 7.97 M 22.38 21.80 C 24.34 19.35 26.79 14.84 22.98 12.78 C 18.27 13.29 20.09 19.40 22.38 21.80 M 6.55 21.99 C 6.57 24.86 8.91 27.01 11.16 28.44 C 14.65 27.83 18.11 26.96 21.68 26.80 C 22.22 21.41 17.11 16.95 12.03 16.68 C 9.06 16.49 6.80 19.23 6.55 21.99 M 23.34 26.84 C 26.50 27.29 29.65 27.93 32.62 29.13 C 36.01 27.17 40.58 22.74 37.05 18.82 C 31.78 13.18 21.90 19.77 23.34 26.84 M 12.08 29.96 C 12.20 31.94 13.61 34.13 11.78 35.84 C 18.51 33.82 25.62 34.15 32.40 35.72 L 31.38 34.09 C 25.56 32.14 19.07 32.46 13.15 33.85 C 13.41 33.12 13.94 31.65 14.20 30.91 L 13.82 31.99 C 19.93 30.87 26.18 31.16 32.25 32.38 C 31.98 31.84 31.46 30.77 31.20 30.23 C 25.17 27.73 18.23 28.02 12.08 29.96 M 13.46 37.04 C 18.77 39.69 25.06 39.15 30.56 37.39 C 25.18 35.10 19.00 35.66 13.46 37.04 Z" />
</g>
<g id="#ffffffff">
<path fill="#ffffff" opacity="1.00" d=" M 22.38 21.80 C 20.09 19.40 18.27 13.29 22.98 12.78 C 26.79 14.84 24.34 19.35 22.38 21.80 Z" />
<path fill="#ffffff" opacity="1.00" d=" M 6.55 21.99 C 6.80 19.23 9.06 16.49 12.03 16.68 C 17.11 16.95 22.22 21.41 21.68 26.80 C 18.11 26.96 14.65 27.83 11.16 28.44 C 8.91 27.01 6.57 24.86 6.55 21.99 Z" />
<path fill="#ffffff" opacity="1.00" d=" M 23.34 26.84 C 21.90 19.77 31.78 13.18 37.05 18.82 C 40.58 22.74 36.01 27.17 32.62 29.13 C 29.65 27.93 26.50 27.29 23.34 26.84 Z" />
<path fill="#ffffff" opacity="1.00" d=" M 12.08 29.96 C 18.23 28.02 25.17 27.73 31.20 30.23 C 31.46 30.77 31.98 31.84 32.25 32.38 C 26.18 31.16 19.93 30.87 13.82 31.99 L 14.20 30.91 C 13.94 31.65 13.41 33.12 13.15 33.85 C 19.07 32.46 25.56 32.14 31.38 34.09 L 32.40 35.72 C 25.62 34.15 18.51 33.82 11.78 35.84 C 13.61 34.13 12.20 31.94 12.08 29.96 Z" />
</g>
<g id="#fcfcfcff">
<path fill="#fcfcfc" opacity="1.00" d=" M 13.46 37.04 C 19.00 35.66 25.18 35.10 30.56 37.39 C 25.06 39.15 18.77 39.69 13.46 37.04 Z" />
</g>
</svg>
