<?xml version="1.0" encoding="UTF-8" ?>
<!DOCTYPE svg PUBLIC "-//W3C//DTD SVG 1.1//EN" "http://www.w3.org/Graphics/SVG/1.1/DTD/svg11.dtd">
<svg width="45pt" height="45pt" viewBox="0 0 45 45" version="1.1" xmlns="http://www.w3.org/2000/svg">
<g id="#222222e6">
<path fill="#222222" opacity="0.90" d=" M 10.32 8.31 C 11.91 8.28 13.51 8.27 15.11 8.27 C 15.55 8.76 16.42 9.74 16.86 10.23 C 18.68 10.90 19.19 8.25 20.88 8.30 C 22.29 8.19 23.71 8.22 25.12 8.23 C 25.64 10.90 29.35 10.98 29.85 8.26 C 31.48 8.26 33.10 8.28 34.73 8.31 C 34.78 10.18 34.97 12.07 34.74 13.95 C 33.44 15.82 31.34 17.45 31.78 20.02 C 32.04 24.04 30.66 28.85 33.75 32.09 C 33.77 32.85 33.81 34.38 33.83 35.14 C 34.56 35.21 36.03 35.34 36.76 35.40 C 36.75 36.83 36.74 38.27 36.72 39.70 C 27.24 39.80 17.76 39.81 8.28 39.70 C 8.26 38.28 8.23 36.86 8.21 35.44 C 8.95 35.36 10.43 35.20 11.17 35.13 C 11.19 34.36 11.25 32.84 11.28 32.08 C 13.72 29.67 13.20 26.13 13.27 23.01 C 13.19 20.39 13.66 17.46 11.55 15.42 C 11.93 15.47 12.70 15.59 13.08 15.65 L 13.60 15.73 C 19.68 16.37 25.87 16.26 31.96 15.73 C 33.35 13.89 33.38 11.61 33.35 9.41 C 32.02 9.95 30.87 10.75 29.90 11.81 C 27.54 11.80 24.71 12.46 23.32 9.95 C 22.91 9.94 22.08 9.94 21.67 9.94 C 19.74 13.01 14.31 12.73 12.85 9.28 C 12.56 9.57 11.97 10.16 11.68 10.45 C 11.13 11.43 11.22 12.60 11.09 13.68 C 10.80 14.24 10.24 15.38 9.96 15.94 C 10.11 13.40 10.22 10.85 10.32 8.31 M 14.91 16.86 C 14.86 20.80 14.86 24.75 14.92 28.70 C 19.97 28.69 25.02 28.69 30.07 28.70 C 30.15 24.75 30.14 20.80 30.09 16.86 C 25.03 16.99 19.97 17.00 14.91 16.86 M 13.58 30.20 C 14.91 31.06 16.47 31.31 18.04 31.19 C 22.50 31.13 26.97 31.28 31.42 31.01 C 30.91 30.68 29.88 30.00 29.36 29.66 C 24.11 29.70 18.75 29.07 13.58 30.20 M 12.61 33.03 C 12.76 33.54 13.06 34.55 13.21 35.06 C 19.40 35.24 25.60 35.24 31.79 35.06 C 31.94 34.55 32.24 33.54 32.39 33.03 C 25.80 32.98 19.20 32.98 12.61 33.03 M 10.01 36.89 L 9.77 38.11 C 17.83 38.15 25.90 38.25 33.96 38.09 C 34.40 37.84 35.28 37.36 35.71 37.11 C 27.15 36.80 18.57 37.21 10.01 36.89 Z" />
</g>
<g id="#737373ff">
<path fill="#737373" opacity="1.00" d=" M 11.09 13.68 C 11.22 12.60 11.13 11.43 11.68 10.45 C 11.98 11.51 12.34 12.55 12.74 13.58 C 19.35 12.40 26.18 13.92 32.71 12.76 C 32.87 11.92 33.19 10.24 33.35 9.41 C 33.38 11.61 33.35 13.89 31.96 15.73 C 25.99 14.56 19.54 14.38 13.60 15.73 L 13.08 15.65 C 12.35 15.04 11.69 14.39 11.09 13.68 Z" />
</g>
<g id="#ffffffff">
<path fill="#ffffff" opacity="1.00" d=" M 11.68 10.45 C 11.97 10.16 12.56 9.57 12.85 9.28 C 14.31 12.73 19.74 13.01 21.67 9.94 C 22.08 9.94 22.91 9.94 23.32 9.95 C 24.71 12.46 27.54 11.80 29.90 11.81 C 30.87 10.75 32.02 9.95 33.35 9.41 C 33.19 10.24 32.87 11.92 32.71 12.76 C 26.18 13.92 19.35 12.40 12.74 13.58 C 12.34 12.55 11.98 11.51 11.68 10.45 Z" />
<path fill="#ffffff" opacity="1.00" d=" M 13.60 15.73 C 19.54 14.38 25.99 14.56 31.96 15.73 C 25.87 16.26 19.68 16.37 13.60 15.73 Z" />
<path fill="#ffffff" opacity="1.00" d=" M 14.91 16.86 C 19.97 17.00 25.03 16.99 30.09 16.86 C 30.14 20.80 30.15 24.75 30.07 28.70 C 25.02 28.69 19.97 28.69 14.92 28.70 C 14.86 24.75 14.86 20.80 14.91 16.86 Z" />
<path fill="#ffffff" opacity="1.00" d=" M 12.61 33.03 C 19.20 32.98 25.80 32.98 32.39 33.03 C 32.24 33.54 31.94 34.55 31.79 35.06 C 25.60 35.24 19.40 35.24 13.21 35.06 C 13.06 34.55 12.76 33.54 12.61 33.03 Z" />
<path fill="#ffffff" opacity="1.00" d=" M 10.01 36.89 C 18.57 37.21 27.15 36.80 35.71 37.11 C 35.28 37.36 34.40 37.84 33.96 38.09 C 25.90 38.25 17.83 38.15 9.77 38.11 L 10.01 36.89 Z" />
</g>
<g id="#f7f7f7ff">
<path fill="#f7f7f7" opacity="1.00" d=" M 13.58 30.20 C 18.75 29.07 24.11 29.70 29.36 29.66 C 29.88 30.00 30.91 30.68 31.42 31.01 C 26.97 31.28 22.50 31.13 18.04 31.19 C 16.47 31.31 14.91 31.06 13.58 30.20 Z" />
</g>
</svg>
