<?xml version="1.0" encoding="UTF-8" ?>
<!DOCTYPE svg PUBLIC "-//W3C//DTD SVG 1.1//EN" "http://www.w3.org/Graphics/SVG/1.1/DTD/svg11.dtd">
<svg width="45pt" height="45pt" viewBox="0 0 45 45" version="1.1" xmlns="http://www.w3.org/2000/svg">
<g id="#000000ff">
<path fill="#000000" opacity="1.00" d=" M 20.32 10.58 C 18.21 8.40 19.73 4.25 22.97 4.80 C 25.81 5.14 26.38 8.67 24.67 10.58 C 28.35 12.40 31.67 15.68 32.03 19.96 C 32.35 22.51 30.82 24.70 29.11 26.39 C 29.66 27.16 30.75 28.70 31.30 29.47 C 25.51 28.70 19.59 28.78 13.79 29.42 C 14.49 28.41 15.18 27.39 15.86 26.36 C 14.15 24.69 12.66 22.50 12.97 19.98 C 13.31 15.69 16.64 12.41 20.32 10.58 M 21.59 17.25 C 21.05 17.26 19.97 17.29 19.43 17.31 C 19.42 17.65 19.42 18.34 19.41 18.69 C 19.96 18.70 21.04 18.74 21.59 18.76 C 21.56 19.97 22.02 20.91 22.97 21.57 C 23.06 20.91 23.25 19.59 23.34 18.93 C 24.12 18.70 25.67 18.23 26.45 18.00 C 25.67 17.77 24.12 17.30 23.34 17.07 C 23.25 16.41 23.06 15.10 22.97 14.44 C 22.02 15.09 21.56 16.03 21.59 17.25 M 16.88 25.05 C 16.88 25.52 16.88 26.48 16.88 26.95 C 20.63 27.03 24.37 27.03 28.12 26.95 C 28.12 26.48 28.12 25.52 28.12 25.05 C 24.37 24.97 20.63 24.97 16.88 25.05 Z" />
<path fill="#000000" opacity="1.00" d=" M 20.38 34.72 C 18.18 33.79 13.60 34.06 14.12 30.61 C 19.68 31.19 25.38 31.34 30.92 30.53 C 31.17 33.92 26.89 33.92 24.59 34.71 C 29.86 35.08 36.29 33.50 40.19 38.06 C 39.67 38.40 38.63 39.09 38.11 39.44 C 29.08 38.56 20.00 38.63 10.94 39.06 C 8.81 39.29 6.50 39.94 4.80 38.19 C 8.38 33.23 15.17 35.23 20.38 34.72 Z" />
</g>
<g id="#ffffffff">
<path fill="#ffffff" opacity="1.00" d=" M 21.59 17.25 C 21.56 16.03 22.02 15.09 22.97 14.44 C 23.06 15.10 23.25 16.41 23.34 17.07 C 24.12 17.30 25.67 17.77 26.45 18.00 C 25.67 18.23 24.12 18.70 23.34 18.93 C 23.25 19.59 23.06 20.91 22.97 21.57 C 22.02 20.91 21.56 19.97 21.59 18.76 C 21.04 18.74 19.96 18.70 19.41 18.69 C 19.42 18.34 19.42 17.65 19.43 17.31 C 19.97 17.29 21.05 17.26 21.59 17.25 Z" />
</g>
<g id="#b9b9b9ff">
<path fill="#b9b9b9" opacity="1.00" d=" M 16.88 25.05 C 20.63 24.97 24.37 24.97 28.12 25.05 C 28.12 25.52 28.12 26.48 28.12 26.95 C 24.37 27.03 20.63 27.03 16.88 26.95 C 16.88 26.48 16.88 25.52 16.88 25.05 Z" />
</g>
<g id="#bbbbbbff">
<path fill="#bbbbbb" opacity="1.00" d=" M 13.79 29.42 C 19.59 28.78 25.51 28.70 31.30 29.47 C 31.20 29.74 31.01 30.27 30.92 30.53 C 25.38 31.34 19.68 31.19 14.12 30.61 C 14.04 30.31 13.87 29.72 13.79 29.42 Z" />
</g>
</svg>
