<?xml version="1.0" encoding="UTF-8" ?>
<!DOCTYPE svg PUBLIC "-//W3C//DTD SVG 1.1//EN" "http://www.w3.org/Graphics/SVG/1.1/DTD/svg11.dtd">
<svg width="45pt" height="45pt" viewBox="0 0 45 45" version="1.1" xmlns="http://www.w3.org/2000/svg">
<g id="#000000ff">
<path fill="#000000" opacity="1.00" d=" M 13.07 6.56 C 14.79 7.31 16.26 8.48 17.61 9.75 C 18.72 8.56 19.84 7.38 20.96 6.21 C 21.86 7.56 22.74 8.91 23.73 10.20 C 24.00 10.54 24.54 11.24 24.81 11.59 C 28.39 12.84 32.33 14.79 33.01 18.97 C 33.84 19.29 34.68 19.57 35.53 19.80 C 35.07 18.85 34.16 16.94 33.70 15.98 C 34.74 17.32 35.68 18.73 36.65 20.12 C 36.39 20.31 35.87 20.69 35.61 20.88 C 34.82 21.25 34.04 21.63 33.26 22.04 L 34.86 21.94 C 35.94 27.74 36.02 33.67 35.78 39.55 C 28.60 39.48 21.42 39.63 14.24 39.45 C 14.46 35.70 16.60 32.66 19.29 30.23 C 21.76 28.16 22.45 24.96 23.02 21.96 C 19.38 25.20 15.29 27.94 12.04 31.60 C 9.54 30.64 5.44 30.61 5.54 26.98 C 6.16 21.28 10.24 16.70 12.84 11.76 C 13.46 10.11 12.93 8.27 13.07 6.56 M 15.48 13.37 C 13.59 13.84 13.17 15.86 12.67 17.45 C 14.73 17.71 17.04 15.12 15.48 13.37 M 8.21 24.26 C 6.80 25.24 8.28 27.88 9.78 26.71 C 11.19 25.74 9.71 23.09 8.21 24.26 Z" />
<path fill="#000000" opacity="1.00" d=" M 36.68 23.75 L 36.68 22.52 C 38.53 27.44 38.54 32.83 38.49 38.02 C 38.29 38.50 37.88 39.45 37.68 39.93 C 37.78 34.51 37.55 29.10 36.68 23.75 Z" />
</g>
<g id="#a3a3a3fc">
<path fill="#a3a3a3" opacity="1.00" d=" M 23.73 10.20 C 24.38 10.27 25.67 10.42 26.32 10.49 C 26.35 10.50 26.41 10.51 26.44 10.52 C 27.65 10.96 28.84 11.45 30.03 11.97 C 30.23 13.02 30.88 13.72 31.98 14.08 C 32.69 14.58 33.26 15.22 33.70 15.98 C 34.16 16.94 35.07 18.85 35.53 19.80 C 34.68 19.57 33.84 19.29 33.01 18.97 C 32.33 14.79 28.39 12.84 24.81 11.59 C 24.54 11.24 24.00 10.54 23.73 10.20 Z" />
</g>
<g id="#282828ad">
<path fill="#282828" opacity="0.68" d=" M 26.32 10.49 C 26.35 10.50 26.41 10.51 26.44 10.52 C 26.41 10.51 26.35 10.50 26.32 10.49 Z" />
</g>
<g id="#1b1b1b88">
<path fill="#1b1b1b" opacity="0.53" d=" M 30.03 11.97 C 31.69 11.71 32.34 12.41 31.98 14.08 C 30.88 13.72 30.23 13.02 30.03 11.97 Z" />
</g>
<g id="#c3c3c3ff">
<path fill="#c3c3c3" opacity="1.00" d=" M 15.48 13.37 C 17.04 15.12 14.73 17.71 12.67 17.45 C 13.17 15.86 13.59 13.84 15.48 13.37 Z" />
</g>
<g id="#dbdbdbfe">
<path fill="#dbdbdb" opacity="1.00" d=" M 33.26 22.04 C 34.04 21.63 34.82 21.25 35.61 20.88 C 35.87 21.60 36.41 23.03 36.68 23.75 C 37.55 29.10 37.78 34.51 37.68 39.93 L 35.78 39.55 C 36.02 33.67 35.94 27.74 34.86 21.94 L 33.26 22.04 Z" />
</g>
<g id="#7d7d7dff">
<path fill="#7d7d7d" opacity="1.00" d=" M 8.21 24.26 C 9.71 23.09 11.19 25.74 9.78 26.71 C 8.28 27.88 6.80 25.24 8.21 24.26 Z" />
</g>
</svg>
