<?xml version="1.0" encoding="UTF-8" ?>
<!DOCTYPE svg PUBLIC "-//W3C//DTD SVG 1.1//EN" "http://www.w3.org/Graphics/SVG/1.1/DTD/svg11.dtd">
<svg width="45pt" height="45pt" viewBox="0 0 45 45" version="1.1" xmlns="http://www.w3.org/2000/svg">
<g id="#000000ff">
<path fill="#000000" opacity="1.00" d=" M 22.24 5.23 C 22.44 5.41 22.83 5.77 23.02 5.95 C 22.93 7.94 26.09 6.58 25.81 8.43 C 23.78 7.94 21.79 10.37 23.99 11.69 C 25.79 12.73 26.69 14.72 26.52 16.77 C 29.54 15.33 34.87 13.89 36.86 17.26 C 31.81 14.27 25.51 17.74 22.66 22.21 C 20.86 20.60 19.34 18.56 17.03 17.53 C 19.27 15.91 18.65 12.21 21.74 11.09 C 23.38 8.10 19.00 9.54 19.27 7.59 C 20.71 7.36 22.15 6.93 22.24 5.23 Z" />
<path fill="#000000" opacity="1.00" d=" M 7.27 22.07 C 7.47 20.31 8.48 18.89 9.99 18.02 C 15.19 17.10 22.02 21.27 21.36 27.00 C 18.15 26.48 15.20 27.74 12.10 28.00 C 9.87 26.75 7.50 24.80 7.27 22.07 Z" />
<path fill="#000000" opacity="1.00" d=" M 28.92 18.91 C 31.83 16.95 37.07 17.70 37.65 21.72 C 37.43 24.98 34.43 27.09 31.84 28.60 C 29.06 27.64 26.13 27.13 23.29 26.66 C 23.60 23.23 25.72 20.25 28.92 18.91 Z" />
<path fill="#000000" opacity="1.00" d=" M 6.77 25.99 C 8.14 27.51 10.07 28.48 11.20 30.20 C 18.09 28.13 26.15 27.90 32.78 30.89 C 33.79 29.11 35.76 28.29 37.17 26.88 C 36.75 28.95 34.19 29.30 33.14 30.93 C 34.32 33.10 33.67 35.53 33.14 37.76 C 33.74 34.89 28.97 35.20 27.18 35.00 C 27.87 34.45 28.60 33.95 29.37 33.51 C 30.92 35.51 32.59 34.04 33.63 32.88 C 26.15 30.39 17.85 30.35 10.37 32.91 C 11.43 34.04 13.07 35.51 14.62 33.51 C 15.39 33.95 16.13 34.45 16.82 35.00 C 14.91 35.16 10.24 34.91 10.85 37.94 C 11.09 35.56 9.20 33.06 11.01 30.88 C 10.14 28.77 7.22 28.39 6.77 25.99 Z" />
<path fill="#000000" opacity="1.00" d=" M 18.32 34.48 C 17.58 34.05 16.88 33.56 16.22 33.00 C 20.08 33.00 23.95 33.01 27.81 33.00 C 27.13 33.56 26.41 34.05 25.65 34.48 C 23.26 33.96 20.71 33.95 18.32 34.48 Z" />
<path fill="#000000" opacity="1.00" d=" M 12.67 37.22 C 18.87 35.79 25.85 35.12 31.70 37.79 L 31.32 38.39 C 25.50 41.03 18.28 41.12 12.54 38.26 C 12.57 38.00 12.64 37.48 12.67 37.22 Z" />
</g>
<g id="#0f0f0fb9">
<path fill="#0f0f0f" opacity="0.73" d=" M 7.91 17.13 C 8.37 14.99 11.94 14.66 13.84 15.22 C 14.80 15.99 17.59 15.53 16.86 17.44 C 14.00 15.99 10.81 15.57 7.91 17.13 Z" />
</g>
<g id="#c0c0c0fd">
<path fill="#c0c0c0" opacity="1.00" d=" M 7.91 17.13 C 10.81 15.57 14.00 15.99 16.86 17.44 L 17.03 17.53 C 19.34 18.56 20.86 20.60 22.66 22.21 C 25.51 17.74 31.81 14.27 36.86 17.26 C 37.15 17.50 37.74 17.98 38.04 18.22 C 38.22 18.43 38.60 18.83 38.79 19.04 L 39.00 19.92 C 39.14 22.01 39.13 24.02 37.99 25.79 C 37.78 26.06 37.37 26.61 37.17 26.88 C 35.76 28.29 33.79 29.11 32.78 30.89 C 26.15 27.90 18.09 28.13 11.20 30.20 C 10.07 28.48 8.14 27.51 6.77 25.99 C 6.43 25.43 6.10 24.86 5.77 24.29 C 6.25 22.96 5.81 21.48 5.99 20.08 C 5.96 18.80 7.07 17.92 7.91 17.13 M 7.27 22.07 C 7.50 24.80 9.87 26.75 12.10 28.00 C 15.20 27.74 18.15 26.48 21.36 27.00 C 22.02 21.27 15.19 17.10 9.99 18.02 C 8.48 18.89 7.47 20.31 7.27 22.07 M 28.92 18.91 C 25.72 20.25 23.60 23.23 23.29 26.66 C 26.13 27.13 29.06 27.64 31.84 28.60 C 34.43 27.09 37.43 24.98 37.65 21.72 C 37.07 17.70 31.83 16.95 28.92 18.91 Z" />
</g>
<g id="#0f0f0fb7">
<path fill="#0f0f0f" opacity="0.72" d=" M 38.04 18.22 L 38.80 18.27 L 38.79 19.04 C 38.60 18.83 38.22 18.43 38.04 18.22 Z" />
</g>
<g id="#232323cf">
<path fill="#232323" opacity="0.81" d=" M 5.77 24.29 C 4.54 23.58 4.23 20.02 5.99 20.08 C 5.81 21.48 6.25 22.96 5.77 24.29 Z" />
</g>
<g id="#232323b2">
<path fill="#232323" opacity="0.70" d=" M 39.00 19.92 C 41.45 20.13 40.18 26.12 37.99 25.79 C 39.13 24.02 39.14 22.01 39.00 19.92 Z" />
</g>
<g id="#adadadfb">
<path fill="#adadad" opacity="1.00" d=" M 10.37 32.91 C 17.85 30.35 26.15 30.39 33.63 32.88 C 32.59 34.04 30.92 35.51 29.37 33.51 C 28.60 33.95 27.87 34.45 27.18 35.00 C 28.97 35.20 33.74 34.89 33.14 37.76 C 32.68 37.92 31.77 38.23 31.32 38.39 L 31.70 37.79 C 25.85 35.12 18.87 35.79 12.67 37.22 C 12.64 37.48 12.57 38.00 12.54 38.26 C 12.12 38.18 11.27 38.02 10.85 37.94 C 10.24 34.91 14.91 35.16 16.82 35.00 C 16.13 34.45 15.39 33.95 14.62 33.51 C 13.07 35.51 11.43 34.04 10.37 32.91 M 18.32 34.48 C 20.71 33.95 23.26 33.96 25.65 34.48 C 26.41 34.05 27.13 33.56 27.81 33.00 C 23.95 33.01 20.08 33.00 16.22 33.00 C 16.88 33.56 17.58 34.05 18.32 34.48 Z" />
</g>
</svg>
