<?xml version="1.0" encoding="UTF-8" ?>
<!DOCTYPE svg PUBLIC "-//W3C//DTD SVG 1.1//EN" "http://www.w3.org/Graphics/SVG/1.1/DTD/svg11.dtd">
<svg width="45pt" height="45pt" viewBox="0 0 45 45" version="1.1" xmlns="http://www.w3.org/2000/svg">
<g id="#000000ff">
<path fill="#000000" opacity="1.00" d=" M 10.47 7.96 C 12.54 8.28 14.55 8.84 16.53 9.51 C 18.22 10.27 19.74 8.79 21.35 8.45 C 23.40 7.68 25.27 9.32 27.20 9.78 C 29.67 9.27 32.01 8.25 34.53 7.96 C 34.68 10.15 34.83 12.35 35.01 14.54 C 31.03 12.33 26.35 13.16 22.00 12.99 C 17.98 13.10 13.66 12.47 9.99 14.55 C 10.17 12.35 10.31 10.15 10.47 7.96 Z" />
<path fill="#000000" opacity="1.00" d=" M 11.55 14.75 C 18.83 15.19 26.17 15.20 33.45 14.75 C 30.97 18.39 31.79 22.94 31.77 27.07 C 31.67 31.95 36.39 34.95 37.19 39.53 C 27.41 39.86 17.59 39.86 7.81 39.53 C 8.21 36.49 10.57 34.42 11.85 31.78 C 13.86 28.52 13.19 24.54 13.28 20.91 C 13.42 18.70 12.69 16.61 11.55 14.75 M 13.68 16.00 L 13.67 17.00 C 19.55 17.00 25.44 17.00 31.33 17.00 L 31.32 16.00 C 25.44 16.00 19.56 16.00 13.68 16.00 M 13.67 29.00 L 13.67 30.00 C 19.55 30.00 25.44 30.00 31.32 30.00 L 31.34 29.00 C 25.45 29.00 19.56 29.00 13.67 29.00 M 12.65 31.00 L 12.69 32.00 C 19.24 32.00 25.79 32.00 32.34 32.00 L 32.32 31.00 C 25.77 31.00 19.21 31.00 12.65 31.00 M 11.64 35.00 L 11.70 36.00 C 18.91 36.00 26.12 36.00 33.33 36.00 L 33.33 35.00 C 26.10 35.00 18.87 35.00 11.64 35.00 Z" />
</g>
<g id="#808080ff">
<path fill="#808080" opacity="1.00" d=" M 9.99 14.55 C 13.66 12.47 17.98 13.10 22.00 12.99 C 26.35 13.16 31.03 12.33 35.01 14.54 L 33.45 14.75 C 26.17 15.20 18.83 15.19 11.55 14.75 L 9.99 14.55 Z" />
</g>
<g id="#ffffffff">
<path fill="#ffffff" opacity="1.00" d=" M 13.68 16.00 C 19.56 16.00 25.44 16.00 31.32 16.00 L 31.33 17.00 C 25.44 17.00 19.55 17.00 13.67 17.00 L 13.68 16.00 Z" />
<path fill="#ffffff" opacity="1.00" d=" M 13.67 29.00 C 19.56 29.00 25.45 29.00 31.34 29.00 L 31.32 30.00 C 25.44 30.00 19.55 30.00 13.67 30.00 L 13.67 29.00 Z" />
<path fill="#ffffff" opacity="1.00" d=" M 12.65 31.00 C 19.21 31.00 25.77 31.00 32.32 31.00 L 32.34 32.00 C 25.79 32.00 19.24 32.00 12.69 32.00 L 12.65 31.00 Z" />
<path fill="#ffffff" opacity="1.00" d=" M 11.64 35.00 C 18.87 35.00 26.10 35.00 33.33 35.00 L 33.33 36.00 C 26.12 36.00 18.91 36.00 11.70 36.00 L 11.64 35.00 Z" />
</g>
</svg>
